<svg width="16" height="16" viewBox="0 0 16 16" fill="none" xmlns="http://www.w3.org/2000/svg">
<path d="M9.39791 15.4615C9.39792 15.533 9.38369 15.6038 9.35605 15.6698C9.3284 15.7357 9.2879 15.7955 9.2369 15.8456C9.1859 15.8957 9.12544 15.9352 9.05902 15.9617C8.99261 15.9882 8.92159 16.0012 8.8501 15.9999H0.538454C0.467402 16.0012 0.39682 15.9881 0.330924 15.9615C0.265028 15.9349 0.205167 15.8953 0.154918 15.8451C0.104668 15.7948 0.0650601 15.735 0.038458 15.6691C0.0118558 15.6032 -0.00119464 15.5326 8.58849e-05 15.4615V0.528923C0.00256242 0.387782 0.0603746 0.25326 0.161071 0.15433C0.261767 0.0554006 0.397291 -2.17193e-05 0.538454 6.38495e-09H8.8501C8.99377 -2.13488e-05 9.13169 0.0563962 9.23416 0.157097C9.33663 0.257798 9.39543 0.394722 9.39791 0.538368V15.4615Z" fill="url(#paint0_linear)"/>
<path d="M1.39793 5.6103C1.39788 5.343 1.50275 5.08637 1.68999 4.8956C1.87722 4.70484 2.13185 4.59518 2.3991 4.59023H7.06496C7.33549 4.59023 7.59495 4.6977 7.78625 4.889C7.97755 5.0803 8.08502 5.33976 8.08502 5.6103C8.08627 5.74505 8.06081 5.87871 8.0101 6.00356C7.9594 6.12841 7.88446 6.24198 7.78961 6.33771C7.69477 6.43343 7.58189 6.50941 7.45751 6.56127C7.33313 6.61312 7.19971 6.63981 7.06496 6.63981H2.3991C2.13021 6.63484 1.87415 6.52388 1.68666 6.33108C1.49916 6.13827 1.39539 5.87923 1.39793 5.6103V5.6103Z" fill="#003067"/>
<path d="M1.3979 2.57846C1.39786 2.31116 1.50273 2.05452 1.68996 1.86376C1.8772 1.67299 2.13183 1.56334 2.39908 1.55839H7.06493C7.33547 1.55839 7.59493 1.66586 7.78623 1.85716C7.97753 2.04846 8.085 2.30792 8.085 2.57846V2.57846C8.085 2.84899 7.97753 3.10845 7.78623 3.29975C7.59493 3.49105 7.33547 3.59852 7.06493 3.59852H2.39908C2.13183 3.59357 1.8772 3.48392 1.68996 3.29315C1.50273 3.10239 1.39786 2.84575 1.3979 2.57846V2.57846Z" fill="#003067"/>
<path d="M2.44626 3.26799C2.82705 3.26799 3.13574 2.95929 3.13574 2.5785C3.13574 2.19771 2.82705 1.88901 2.44626 1.88901C2.06546 1.88901 1.75677 2.19771 1.75677 2.5785C1.75677 2.95929 2.06546 3.26799 2.44626 3.26799Z" fill="#50E6FF"/>
<path d="M2.44626 6.29983C2.82705 6.29983 3.13574 5.99114 3.13574 5.61034C3.13574 5.22955 2.82705 4.92085 2.44626 4.92085C2.06546 4.92085 1.75677 5.22955 1.75677 5.61034C1.75677 5.99114 2.06546 6.29983 2.44626 6.29983Z" fill="#50E6FF"/>
<defs>
<linearGradient id="paint0_linear" x1="4.69428" y1="15.9999" x2="4.69428" y2="0" gradientUnits="userSpaceOnUse">
<stop stop-color="#949494"/>
<stop offset="0.53" stop-color="#A2A2A2"/>
<stop offset="1" stop-color="#B3B3B3"/>
</linearGradient>
</defs>
</svg>
