<?xml version="1.0" encoding="utf-8"?>
<!-- Generator: Adobe Illustrator 23.0.1, SVG Export Plug-In . SVG Version: 6.00 Build 0)  -->
<svg version="1.1" id="Layer_1" xmlns="http://www.w3.org/2000/svg" xmlns:xlink="http://www.w3.org/1999/xlink" x="0px" y="0px"
	 viewBox="0 0 16 16" style="enable-background:new 0 0 16 16;" xml:space="preserve">
<style type="text/css">
	.st0{fill-rule:evenodd;clip-rule:evenodd;fill:#808080;}
	.st1{fill-rule:evenodd;clip-rule:evenodd;fill:#FFFFFF;}
	.st2{fill-rule:evenodd;clip-rule:evenodd;fill:#A0A1A2;}
	.st3{fill-rule:evenodd;clip-rule:evenodd;fill:#B3B4B5;}
	.st4{fill-rule:evenodd;clip-rule:evenodd;fill:#0055B2;}
	.st5{fill-rule:evenodd;clip-rule:evenodd;fill:#59B4D9;}
	.st6{fill-rule:evenodd;clip-rule:evenodd;fill:#CEDCF2;}
	.st7{fill-rule:evenodd;clip-rule:evenodd;fill:#9CC4E5;}
	.st8{fill-rule:evenodd;clip-rule:evenodd;fill:#3270D4;}
</style>
<path id="Fill-1" class="st0" d="M9.6,12c-0.3,0-0.3,0-0.3,0C6,12,6,12,6,12c-0.2,0-0.2,0-0.2,0c0.5,1.8-0.1,2.1-2.8,2.1
	C3,15,3,15,3,15c3.4,0,3.4,0,3.4,0c2.4,0,2.4,0,2.4,0c3.2,0,3.2,0,3.2,0c0-0.9,0-0.9,0-0.9C9.4,14.1,9.1,13.8,9.6,12z"/>
<path id="Fill-4" class="st1" d="M1.3,2C1.1,2.1,1,2.4,1,2.6c0,8.6,0,8.6,0,8.6C1,11.7,1.3,12,1.7,12C2,12,2,12,2,12
	c-0.3,0-0.3,0-0.3,0C1.3,12,1,11.7,1,11.2c0-8.6,0-8.6,0-8.6C1,2.4,1.1,2.1,1.3,2z"/>
<polygon id="Fill-8" class="st2" points="3,15 12,15 12,14 3,14 "/>
<path id="Fill-3" class="st2" d="M14.2,2C1.8,2,1.8,2,1.8,2C1.4,2,1,2.3,1,2.8c0,8.5,0,8.5,0,8.5C1,11.7,1.4,12,1.8,12
	c12.4,0,12.4,0,12.4,0c0.4,0,0.8-0.3,0.8-0.8c0-8.5,0-8.5,0-8.5C15,2.3,14.6,2,14.2,2z"/>
<path id="Fill-5" class="st3" d="M14,2C1.8,2,1.8,2,1.8,2C1.6,2,1.4,2.1,1.3,2.1C1.1,2.3,1,2.6,1,2.8c0,8.5,0,8.5,0,8.5
	C1,11.7,1.3,12,1.8,12C2,12,2,12,2,12c1.2-1,1.2-1,1.2-1C2,11,2,11,2,11c0-8,0-8,0-8c10.7,0,10.7,0,10.7,0C14,2,14,2,14,2L14,2z"/>
<polygon id="Fill-6" class="st4" points="2,11 14,11 14,3 2,3 "/>
<polygon id="Fill-7" class="st5" points="2,11 2,11 2,3 13,3 13,3 2,3 "/>
<path id="Fill-10" class="st1" d="M7.5,7C7.5,6.9,7.5,6.9,7.5,7C5,5.5,5,5.5,5,5.5s0,0,0-0.1l0,0C7.4,4,7.4,4,7.4,4
	c0.1,0,0.1,0,0.1,0C10,5.4,10,5.4,10,5.4c0,0.1,0,0.1,0,0.1c0,0.1,0,0.1,0,0.1C7.6,6.9,7.6,6.9,7.5,7L7.5,7z"/>
<path id="Fill-11" class="st6" d="M5.1,6C5,6,5,6,5.1,6L5.1,6C5,8.7,5,8.7,5,8.7s0,0,0,0.1C6.9,10,6.9,10,6.9,10l0,0C7,10,7,10,7,10
	V9.9c0-2.6,0-2.6,0-2.6s0,0,0-0.1C5.1,6,5.1,6,5.1,6z"/>
<path id="Fill-12" class="st7" d="M10,6C9.9,6,9.9,6,10,6C8.1,7.3,8.1,7.3,8.1,7.3C8,7.3,8,7.3,8,7.4c0,2.5,0,2.5,0,2.5S8,10,8.1,10
	c0.1,0,0.1,0,0.1,0C10,8.7,10,8.7,10,8.7c0-0.1,0-0.1,0-0.1C10,6.1,10,6.1,10,6C10,6.1,10,6.1,10,6z"/>
<circle id="Oval" class="st8" cx="7.5" cy="2.5" r="1"/>
</svg>
