<?xml version="1.0" encoding="utf-8"?>
<!-- Generator: Adobe Illustrator 23.0.1, SVG Export Plug-In . SVG Version: 6.00 Build 0)  -->
<svg version="1.1" id="Layer_1" xmlns="http://www.w3.org/2000/svg" xmlns:xlink="http://www.w3.org/1999/xlink" x="0px" y="0px"
	 viewBox="0 0 16 16" style="enable-background:new 0 0 16 16;" xml:space="preserve">
<style type="text/css">
	.st0{fill-rule:evenodd;clip-rule:evenodd;}
	.st1{fill-rule:evenodd;clip-rule:evenodd;fill:#FFFFFF;}
	.st2{fill-rule:evenodd;clip-rule:evenodd;fill:#808080;}
	.st3{fill-rule:evenodd;clip-rule:evenodd;fill:#595959;}
	.st4{fill-rule:evenodd;clip-rule:evenodd;fill:#2058A6;}
	.st5{fill-rule:evenodd;clip-rule:evenodd;fill:#59B4D9;}
	.st6{fill-rule:evenodd;clip-rule:evenodd;fill:#3270D4;}
	.st7{fill-rule:evenodd;clip-rule:evenodd;fill:#CEDCF2;}
	.st8{fill-rule:evenodd;clip-rule:evenodd;fill:#9CC4E5;}
</style>
<title>local_compute_target_light</title>
<desc>Created with Sketch.</desc>
<g id="Group" transform="translate(1.000000, 2.000000)">
	<path id="Fill-1" class="st0" d="M8.6,10c-0.3,0-0.3,0-0.3,0C5,10,5,10,5,10c-0.2,0-0.2,0-0.2,0c0.5,1.8-0.1,2.1-2.8,2.1
		C2,13,2,13,2,13c3.4,0,3.4,0,3.4,0c2.4,0,2.4,0,2.4,0c3.2,0,3.2,0,3.2,0c0-0.9,0-0.9,0-0.9C8.4,12.1,8.1,11.8,8.6,10z"/>
	<path id="Fill-4" class="st1" d="M0.3,0C0.1,0.1,0,0.4,0,0.6c0,8.6,0,8.6,0,8.6C0,9.7,0.3,10,0.7,10C1,10,1,10,1,10
		c-0.3,0-0.3,0-0.3,0C0.3,10,0,9.7,0,9.2c0-8.6,0-8.6,0-8.6C0,0.4,0.1,0.1,0.3,0z"/>
	<polygon id="Fill-8" class="st2" points="2,13 11,13 11,12 2,12 	"/>
	<path id="Fill-3" class="st3" d="M13.2,0C0.8,0,0.8,0,0.8,0C0.4,0,0,0.3,0,0.8c0,8.5,0,8.5,0,8.5C0,9.7,0.4,10,0.8,10
		c12.4,0,12.4,0,12.4,0c0.4,0,0.8-0.3,0.8-0.8c0-8.5,0-8.5,0-8.5C14,0.3,13.6,0,13.2,0z"/>
	<path id="Fill-5" class="st2" d="M13,0C0.8,0,0.8,0,0.8,0C0.6,0,0.4,0.1,0.3,0.1C0.1,0.3,0,0.6,0,0.8c0,8.5,0,8.5,0,8.5
		C0,9.7,0.3,10,0.8,10C1,10,1,10,1,10c1.2-1,1.2-1,1.2-1C1,9,1,9,1,9C1,1,1,1,1,1c10.7,0,10.7,0,10.7,0C13,0,13,0,13,0L13,0z"/>
	<polygon id="Fill-6" class="st4" points="1,9 13,9 13,1 1,1 	"/>
	<polygon id="Fill-7" class="st5" points="1,9 1,9 1,1 12,1 12,1 1,1 	"/>
	<circle id="Oval" class="st6" cx="6.5" cy="0.5" r="1"/>
	<path id="Fill-10" class="st1" d="M6.5,5C6.5,4.9,6.5,4.9,6.5,5C4,3.5,4,3.5,4,3.5s0,0,0-0.1l0,0C6.4,2,6.4,2,6.4,2
		c0.1,0,0.1,0,0.1,0C9,3.4,9,3.4,9,3.4c0,0.1,0,0.1,0,0.1c0,0.1,0,0.1,0,0.1C6.6,4.9,6.6,4.9,6.5,5L6.5,5z"/>
	<path id="Fill-11" class="st7" d="M4.1,4C4,4,4,4,4.1,4L4.1,4C4,6.7,4,6.7,4,6.7s0,0,0,0.1C5.9,8,5.9,8,5.9,8l0,0C6,8,6,8,6,8V7.9
		c0-2.6,0-2.6,0-2.6s0,0,0-0.1C4.1,4,4.1,4,4.1,4z"/>
	<path id="Fill-12" class="st8" d="M9,4C8.9,4,8.9,4,9,4C7.1,5.3,7.1,5.3,7.1,5.3C7,5.3,7,5.3,7,5.4c0,2.5,0,2.5,0,2.5S7,8,7.1,8
		s0.1,0,0.1,0C9,6.7,9,6.7,9,6.7c0-0.1,0-0.1,0-0.1C9,4.1,9,4.1,9,4C9,4.1,9,4.1,9,4z"/>
</g>
</svg>
