<svg width="16" height="16" viewBox="0 0 16 16" fill="none" xmlns="http://www.w3.org/2000/svg">
<g clip-path="url(#clip0)">
<path d="M15.0695 2.8448C14.6713 2.18152 14.1454 1.60384 13.5223 1.14524C12.8993 0.686633 12.1914 0.356214 11.4397 0.17312C10.977 0.0585736 10.5021 0.000444473 10.0253 0C7.3143 0 4.96358 1.84576 4.30918 4.48768C3.94982 5.95456 4.1847 7.5088 4.94086 8.82272L0.439097 13.3603C0.159668 13.6469 0.00484349 14.0324 0.00835938 14.4327C0.0118753 14.833 0.173447 15.2156 0.457868 15.4973C0.742289 15.779 1.12651 15.9368 1.5268 15.9365C1.9271 15.9361 2.31103 15.7776 2.59494 15.4954L7.07558 10.9786C7.97005 11.5085 8.99111 11.7869 10.0308 11.7843C12.7466 11.7843 15.0977 9.94112 15.7473 7.30176C15.935 6.55099 15.9718 5.7704 15.8554 5.0053C15.7391 4.2402 15.4719 3.50582 15.0695 2.8448V2.8448Z" fill="#363636"/>
<path d="M14.0348 6.87964C13.8158 7.77598 13.302 8.57273 12.5758 9.14202C11.8497 9.7113 10.9533 10.0201 10.0306 10.0188C9.69975 10.0188 9.36727 9.97852 9.04279 9.89884C8.55908 9.77841 8.10143 9.57063 7.69239 9.28572C7.2748 8.99673 6.9142 8.63308 6.62871 8.21308C5.99191 7.27804 5.73431 6.08956 6.02423 4.90812C6.15296 4.38145 6.38437 3.88536 6.70518 3.44828C7.02599 3.0112 7.42991 2.64173 7.89377 2.36105C8.35764 2.08036 8.87234 1.89398 9.40837 1.81258C9.9444 1.73117 10.4912 1.75636 11.0175 1.88668C11.544 2.01496 12.0398 2.24641 12.4762 2.56763C12.9126 2.88886 13.281 3.29347 13.5599 3.75804C13.8418 4.22101 14.0289 4.73535 14.1104 5.27122C14.1919 5.80708 14.1662 6.35379 14.0348 6.87964" fill="#F1F7FB"/>
<path opacity="0.1" d="M14.0348 6.87964C13.8158 7.77598 13.302 8.57273 12.5758 9.14202C11.8497 9.7113 10.9533 10.0201 10.0306 10.0188C9.69975 10.0188 9.36727 9.97852 9.04279 9.89884C8.55908 9.77841 8.10143 9.57063 7.69239 9.28572C7.2748 8.99673 6.9142 8.63308 6.62871 8.21308C5.99191 7.27804 5.73431 6.08956 6.02423 4.90812C6.15296 4.38145 6.38437 3.88536 6.70518 3.44828C7.02599 3.0112 7.42991 2.64173 7.89377 2.36105C8.35764 2.08036 8.87234 1.89398 9.40837 1.81258C9.9444 1.73117 10.4912 1.75636 11.0175 1.88668C11.544 2.01496 12.0398 2.24641 12.4762 2.56763C12.9126 2.88886 13.281 3.29347 13.5599 3.75804C13.8418 4.22101 14.0289 4.73535 14.1104 5.27122C14.1919 5.80708 14.1662 6.35379 14.0348 6.87964" fill="#F1F7FB"/>
<path d="M12.2584 2.4246C11.8775 2.17768 11.4581 1.99588 11.0175 1.88668C10.4912 1.75636 9.94435 1.73117 9.40832 1.81258C8.87228 1.89398 8.35759 2.08036 7.89372 2.36105C7.42985 2.64173 7.02594 3.0112 6.70513 3.44828C6.38431 3.88536 6.15291 4.38145 6.02418 4.90812C5.73426 6.08956 5.99218 7.27804 6.62866 8.2134C6.74034 8.37756 6.86738 8.53116 7.00178 8.67804C7.87666 5.97372 9.7829 3.735 12.2584 2.4246" fill="#C6DAE7"/>
<path opacity="0.5" d="M6.69231 10.7378C6.09601 10.3253 5.58112 9.80606 5.17359 9.20631C5.08879 9.08183 5.01551 8.95191 4.94095 8.82263L4.51759 9.24919L4.47119 9.29591C4.94559 10.0748 5.57836 10.7453 6.32847 11.2639C6.38479 11.303 6.52655 11.3577 6.64975 11.4079L7.07567 10.9785C6.94492 10.9031 6.81704 10.8228 6.69231 10.7378V10.7378Z" fill="black"/>
</g>
<defs>
<clipPath id="clip0">
<rect width="16" height="16" fill="white"/>
</clipPath>
</defs>
</svg>
