<svg width="16" height="16" viewBox="0 0 16 16" fill="none" xmlns="http://www.w3.org/2000/svg">
<g clip-path="url(#clip0)">
<path d="M15.0694 2.8448C14.6712 2.18152 14.1453 1.60384 13.5223 1.14524C12.8992 0.686633 12.1913 0.356214 11.4397 0.17312C10.9769 0.0585736 10.502 0.000444473 10.0253 0C7.31424 0 4.96352 1.84576 4.30912 4.48768C3.94976 5.95456 4.18464 7.5088 4.9408 8.82272L0.43904 13.3603C0.159611 13.6469 0.00478627 14.0324 0.00830216 14.4327C0.011818 14.833 0.173389 15.2156 0.457811 15.4973C0.742232 15.779 1.12645 15.9368 1.52675 15.9365C1.92704 15.9361 2.31097 15.7776 2.59488 15.4954L7.07552 10.9786C7.97 11.5085 8.99105 11.7869 10.0307 11.7843C12.7466 11.7843 15.0976 9.94112 15.7472 7.30176C15.935 6.55099 15.9717 5.7704 15.8554 5.0053C15.739 4.2402 15.4719 3.50582 15.0694 2.8448V2.8448Z" fill="#777777"/>
<path d="M14.0349 6.87968C13.8159 7.77601 13.3021 8.57277 12.5759 9.14206C11.8498 9.71134 10.9534 10.0201 10.0307 10.0189C9.69984 10.0189 9.36736 9.97856 9.04288 9.89888C8.55917 9.77845 8.10152 9.57066 7.69248 9.28576C7.27489 8.99676 6.91428 8.63312 6.6288 8.21312C5.992 7.27808 5.7344 6.0896 6.02432 4.90816C6.15305 4.38149 6.38446 3.8854 6.70527 3.44832C7.02608 3.01124 7.43 2.64177 7.89386 2.36109C8.35773 2.0804 8.87243 1.89402 9.40846 1.81262C9.94449 1.73122 10.4913 1.7564 11.0176 1.88672C11.5441 2.015 12.0399 2.24645 12.4763 2.56767C12.9127 2.8889 13.2811 3.29351 13.56 3.75808C13.8419 4.22105 14.029 4.73539 14.1105 5.27125C14.192 5.80712 14.1663 6.35383 14.0349 6.87968" fill="#F1F7FB"/>
<path d="M12.2586 2.42464C11.8776 2.17772 11.4582 1.99592 11.0176 1.88672C10.4913 1.7564 9.94449 1.73122 9.40846 1.81262C8.87243 1.89402 8.35773 2.0804 7.89386 2.36109C7.43 2.64177 7.02608 3.01124 6.70527 3.44832C6.38446 3.8854 6.15305 4.38149 6.02432 4.90816C5.7344 6.0896 5.99232 7.27808 6.6288 8.21344C6.74048 8.3776 6.86752 8.5312 7.00192 8.67808C7.8768 5.97376 9.78304 3.73504 12.2586 2.42464" fill="#C6DAE7"/>
<path opacity="0.5" d="M6.69216 10.7379C6.09586 10.3254 5.58096 9.80614 5.17344 9.2064C5.08864 9.08192 5.01536 8.952 4.9408 8.82272L4.51744 9.24928L4.47104 9.296C4.94544 10.0749 5.5782 10.7453 6.32832 11.264C6.38464 11.303 6.5264 11.3578 6.6496 11.408L7.07552 10.9786C6.94477 10.9032 6.81689 10.8229 6.69216 10.7379V10.7379Z" fill="black"/>
</g>
<defs>
<clipPath id="clip0">
<rect width="16" height="16" fill="white"/>
</clipPath>
</defs>
</svg>
