<svg width="41" height="48" viewBox="0 0 41 48" fill="none" xmlns="http://www.w3.org/2000/svg">
<path fill-rule="evenodd" clip-rule="evenodd" d="M32.014 0H1V48H41V7.888L32.014 0ZM30.891 2.043H3.076V45.957H38.95V9.26L30.891 2.044V2.043Z" fill="#6E849D"/>
<path d="M20.832 28.429C23.0097 28.429 24.775 26.6677 24.775 24.495C24.775 22.3223 23.0097 20.561 20.832 20.561C18.6544 20.561 16.889 22.3223 16.889 24.495C16.889 26.6677 18.6544 28.429 20.832 28.429Z" fill="#F78B00"/>
<path fill-rule="evenodd" clip-rule="evenodd" d="M20.978 38.919C25.01 38.919 28.278 32.526 28.278 24.64C28.278 16.754 25.01 10.362 20.978 10.362C16.945 10.362 13.677 16.755 13.677 24.64C13.677 32.526 16.945 38.919 20.977 38.919H20.978ZM20.978 36.879C24.365 36.879 27.111 31.399 27.111 24.64C27.111 17.881 24.365 12.402 20.978 12.402C17.591 12.402 14.845 17.882 14.845 24.64C14.845 31.4 17.591 36.88 20.978 36.88V36.879Z" fill="#6E849D"/>
<path fill-rule="evenodd" clip-rule="evenodd" d="M33.371 17.501C31.355 14.017 24.172 14.388 17.328 18.331C10.483 22.274 6.56904 28.295 8.58504 31.78C10.601 35.264 17.785 34.892 24.629 30.95C31.473 27.006 35.387 20.985 33.371 17.501V17.501ZM31.601 18.521C29.907 15.594 23.778 15.961 17.911 19.341C12.045 22.721 8.66104 27.833 10.355 30.76C12.049 33.687 18.178 33.32 24.045 29.94C29.911 26.56 33.295 21.448 31.601 18.521Z" fill="#6E849D"/>
<path fill-rule="evenodd" clip-rule="evenodd" d="M33.37 31.78C35.387 28.295 31.473 22.275 24.628 18.332C17.784 14.389 10.601 14.017 8.58504 17.502C6.56904 20.986 10.483 27.007 17.327 30.95C24.172 34.892 31.355 35.264 33.371 31.78H33.37ZM31.6 30.76C33.294 27.833 29.91 22.72 24.044 19.341C18.177 15.961 12.049 15.594 10.355 18.521C8.66204 21.448 12.045 26.561 17.911 29.941C23.778 33.32 29.907 33.687 31.601 30.76H31.6Z" fill="#6E849D"/>
<path d="M0.0290151 8.51V6.703H4.09902V8.51H0.0290151ZM0.0280151 16.932V15.127H4.10001V16.932H0.0280151ZM0.0290151 25.355V23.55H4.09902V25.355H0.0290151ZM0.0280151 33.777V31.972H4.10001V33.777H0.0280151ZM0.0290151 42.2V40.395H4.09902V42.2H0.0290151Z" fill="#6E849D"/>
</svg>
